<svg version="1.1" id="Layer_1" xmlns="http://www.w3.org/2000/svg" xmlns:xlink="http://www.w3.org/1999/xlink" x="0px" y="0px"
	 width="100%" viewBox="0 0 512 512" enable-background="new 0 0 512 512" xml:space="preserve">
<path fill="#FFFFFF" opacity="1.000000" stroke="none" 
	d="
M513.000000,144.000000 
	C513.000000,166.354233 513.000000,188.708450 512.677612,211.375366 
	C509.582794,207.986664 507.497620,203.286819 503.887756,200.802078 
	C497.375000,196.319260 489.695831,196.662674 482.728607,200.226242 
	C476.060638,203.636765 472.961823,209.575378 472.977173,217.179474 
	C473.031921,244.298508 472.985687,271.417725 473.006439,298.536865 
	C473.012726,306.760956 477.800385,313.686279 485.640076,315.949249 
	C494.975464,318.643982 506.731171,318.151367 513.000000,303.000000 
	C513.000000,326.020905 513.000000,349.041779 512.677612,372.375397 
	C509.582916,368.986847 507.497833,364.287445 503.888214,361.802429 
	C497.375977,357.318939 489.696869,357.662933 482.730194,361.225647 
	C476.062958,364.635254 472.960236,370.572449 472.977142,378.176880 
	C473.033691,403.630951 472.984985,429.085297 473.006439,454.539520 
	C473.013367,462.761566 477.801819,469.686584 485.641602,471.949524 
	C494.976562,474.643982 506.731415,474.150604 513.000000,459.000000 
	C513.000000,476.926788 513.000000,494.853546 513.000000,513.000000 
	C495.313049,513.000000 477.625183,513.000000 459.624023,512.677124 
	C470.194031,508.900665 475.770813,498.013672 472.376587,486.847137 
	C469.917084,478.755737 463.409058,473.075043 455.847992,473.046143 
	C435.898499,472.969849 415.948120,473.110962 395.533386,473.101257 
	C388.441620,473.024536 381.814392,472.976257 375.187592,473.008972 
	C367.455200,473.047150 360.551727,478.021179 358.020630,485.291962 
	C353.900604,497.127045 358.390930,506.712860 371.000000,513.000000 
	C349.312439,513.000000 327.624878,513.000000 305.621338,512.674927 
	C313.113098,510.248505 317.749451,504.875153 318.831421,497.208282 
	C319.999481,488.931702 318.498749,481.252777 310.627747,476.031952 
	C303.764832,471.479767 296.301239,473.356384 288.533508,473.102539 
	C279.711060,473.080933 271.353180,473.124481 262.531067,473.103180 
	C252.043091,473.081268 242.019394,473.124268 231.531525,473.102081 
	C225.760345,473.024506 220.453156,472.976990 215.146408,473.007965 
	C207.402359,473.053131 200.549728,478.003754 198.014679,485.315918 
	C193.904602,497.171112 198.390182,506.734131 211.000000,513.000000 
	C189.312439,513.000000 167.624878,513.000000 145.613953,512.669434 
	C153.115601,510.268707 157.740479,504.879425 158.827194,497.228363 
	C160.001770,488.958771 158.515945,481.271515 150.637833,476.041229 
	C143.768005,471.480347 136.303635,473.355957 128.531693,473.101044 
	C119.710579,473.078949 111.353828,473.122650 102.532768,473.099823 
	C94.711670,473.076996 87.354881,473.120636 79.535461,473.097412 
	C74.047256,473.075684 69.021675,473.120819 63.546577,473.099243 
	C49.800598,471.731445 43.205143,478.385681 41.098984,485.365021 
	C38.304668,494.624817 38.680866,506.731934 54.000000,513.000000 
	C36.405876,513.000000 18.811756,513.000000 1.000000,513.000000 
	C1.000000,495.313019 1.000000,477.625183 1.336051,459.607025 
	C4.402910,468.519653 11.257628,473.328430 21.417377,472.903076 
	C32.229073,473.840881 41.217323,464.138672 41.096535,453.976318 
	C40.792252,428.376007 40.742317,402.765991 41.116192,377.167542 
	C41.273457,366.399872 31.219198,356.436646 20.574879,358.099731 
	C10.156160,357.733765 4.670568,363.622406 1.000000,372.000000 
	C1.000000,349.312439 1.000000,326.624878 1.336051,303.607025 
	C4.402910,312.519653 11.257625,317.328430 21.417377,316.903076 
	C32.229031,317.841034 41.211254,308.137939 41.096806,297.974792 
	C40.797253,271.375305 40.748325,244.766815 41.116566,218.169083 
	C41.265656,207.400482 31.219200,197.436569 20.574883,199.099747 
	C10.156188,198.733795 4.670543,204.622360 1.000000,213.000000 
	C1.000000,189.979111 1.000000,166.958206 1.336052,143.607040 
	C4.290730,152.141678 11.149230,157.215881 20.426762,156.903702 
	C31.882376,158.283310 41.376965,148.308823 41.153843,136.962402 
	C40.650589,111.370247 40.610958,85.753036 41.166386,60.163036 
	C41.424503,48.270844 31.122362,38.135822 19.585552,40.099228 
	C9.630561,40.151917 4.510774,46.029137 1.000000,54.000000 
	C1.000000,36.406563 1.000000,18.813124 1.000000,1.000000 
	C18.353609,1.000000 35.708145,1.000000 53.391094,1.334476 
	C45.952812,3.685463 41.281670,9.034791 40.189606,16.578819 
	C39.014233,24.698320 40.257954,32.389931 48.047096,37.737041 
	C53.423206,41.427650 59.114487,41.111042 65.459961,40.903572 
	C71.948524,40.927036 77.973122,40.880356 84.461472,40.903267 
	C90.949181,40.926460 96.973114,40.880062 103.461227,40.903294 
	C111.948997,40.926537 119.972588,40.880150 128.458954,40.903259 
	C132.405594,40.982086 135.889526,41.009480 139.373306,40.997166 
	C147.831345,40.967262 154.619904,36.272289 156.967422,28.158243 
	C159.669815,18.817549 158.978973,7.183595 144.000000,1.000000 
	C166.020889,1.000000 188.041794,1.000000 210.381897,1.327627 
	C202.280289,3.798592 196.186844,11.651014 196.902252,22.749218 
	C197.449310,31.235733 202.373871,38.600269 211.158279,40.390514 
	C216.576355,41.494709 222.371429,40.749111 228.461639,40.901825 
	C238.616058,40.924541 248.306076,40.879429 258.460815,40.901787 
	C267.283081,40.924084 275.640625,40.878910 284.462463,40.900551 
	C289.896454,40.978210 294.866455,41.024212 299.835876,40.991772 
	C307.571136,40.941277 314.445984,35.982620 316.976593,28.693325 
	C321.087524,16.851875 316.609009,7.294309 304.000000,1.000000 
	C326.354218,1.000000 348.708466,1.000000 371.376526,1.323474 
	C363.884796,3.752114 359.246613,9.124225 358.163055,16.791880 
	C356.993347,25.069012 358.509033,32.733051 366.360901,37.973907 
	C372.587402,42.129875 379.324158,40.820026 386.463562,40.900455 
	C397.951813,40.921799 408.975525,40.877625 420.463745,40.898968 
	C432.200775,40.976322 443.473328,41.017773 454.745697,40.989788 
	C462.507629,40.970520 469.435516,35.999058 471.969513,28.747257 
	C476.103455,16.916723 471.609894,7.303113 459.000000,1.000000 
	C476.926086,1.000000 494.852173,1.000000 513.000000,1.000000 
	C513.000000,18.353598 513.000000,35.708141 512.677612,53.375397 
	C509.582764,49.986710 507.497650,45.286892 503.887817,42.802135 
	C497.375153,38.319237 489.695984,38.662750 482.728882,42.226135 
	C476.061066,45.636459 472.961548,51.574829 472.977173,59.178978 
	C473.032257,85.965012 472.985596,112.751228 473.006439,139.537369 
	C473.012848,147.760818 477.800751,154.686554 485.640320,156.949265 
	C494.976776,159.644028 506.731262,159.150833 513.000000,144.000000 
M101.923019,357.970734 
	C106.947868,357.924744 111.972725,357.878784 117.924561,357.971100 
	C123.615662,357.924927 129.306763,357.878723 135.897125,357.969177 
	C154.934830,360.039185 162.307648,344.279510 157.960846,330.540131 
	C155.511353,322.797821 148.236984,316.426666 134.070480,318.034210 
	C128.379517,318.078552 122.688560,318.122894 116.072357,318.033966 
	C111.047661,318.078430 106.022957,318.122894 100.074608,318.032990 
	C95.381790,318.077789 90.688965,318.122559 85.068535,318.032990 
	C78.710976,318.077667 72.353424,318.122345 65.082664,318.033173 
	C62.597195,318.022491 60.110947,317.966705 57.626396,318.009430 
	C49.640030,318.146729 42.895283,323.685303 40.429459,332.086273 
	C38.114609,339.972931 41.496044,349.733826 47.218624,354.156708 
	C53.029079,358.647552 59.451897,358.106323 66.924065,357.973389 
	C73.281425,357.926483 79.638779,357.879547 86.919952,357.971832 
	C91.612717,357.925446 96.305481,357.879059 101.923019,357.970734 
M134.069855,158.034225 
	C128.045319,158.078354 122.020790,158.122482 115.068497,158.033386 
	C108.710899,158.077759 102.353310,158.122147 95.067551,158.033295 
	C87.376358,158.077988 79.685165,158.122696 71.067032,158.034760 
	C67.087929,158.023697 63.108814,158.002060 59.129711,158.003708 
	C49.425499,158.007721 41.443352,164.484589 40.023090,173.494720 
	C38.220146,184.932587 43.130386,194.456635 53.381432,196.913254 
	C59.318127,198.335938 65.772568,197.598129 72.922737,197.974426 
	C80.613739,197.927429 88.304741,197.880447 96.924080,197.972900 
	C103.281471,197.926392 109.638855,197.879898 116.924446,197.971680 
	C122.948921,197.925308 128.973389,197.878922 135.887299,197.969025 
	C153.275681,199.753296 161.417801,184.794601 156.975906,170.539154 
	C154.540543,162.723236 146.647751,156.464996 134.069855,158.034225 
M383.928192,197.966675 
	C390.952057,197.922852 397.975891,197.879044 405.928864,197.965515 
	C422.236481,197.976685 438.544128,198.004410 454.851654,197.970520 
	C456.300171,197.967499 457.786652,197.705841 459.189758,197.323227 
	C471.388550,193.996765 475.014923,182.694656 472.344604,171.931976 
	C470.318512,163.765808 463.451141,158.092300 455.910065,158.049286 
	C438.940735,157.952545 421.969940,158.110489 404.070374,158.035172 
	C397.046661,158.078247 390.022949,158.121323 382.090332,158.036133 
	C379.929565,158.024017 377.767853,157.964584 375.608215,158.008255 
	C367.659149,158.169022 361.148834,163.490601 358.607147,171.862274 
	C356.136627,179.999512 359.268646,189.689178 365.113525,194.123993 
	C370.623718,198.304886 376.691681,198.289581 383.928192,197.966675 
M224.074402,158.035385 
	C220.912628,158.023727 217.749802,157.953934 214.589310,158.011841 
	C206.651230,158.157272 200.158890,163.481125 197.605560,171.865814 
	C195.134888,179.979141 198.318558,189.658188 204.107208,194.128204 
	C210.576218,199.123611 217.807190,197.929123 225.925507,197.971039 
	C233.616623,197.925751 241.307755,197.880463 249.927719,197.968750 
	C258.617645,197.923782 267.307556,197.878830 276.926422,197.968124 
	C279.255371,197.979324 281.584290,197.998016 283.913239,198.000137 
	C288.737793,198.004517 293.565002,197.896759 298.386444,198.018646 
	C312.807220,198.383209 320.887817,185.855347 317.358704,171.932083 
	C315.291199,163.775238 308.468842,158.170471 300.941284,158.046051 
	C292.629608,157.908630 284.312347,158.111465 275.068268,158.036682 
	C266.378479,158.079407 257.688690,158.122131 248.069641,158.034042 
	C240.378494,158.077515 232.687347,158.120987 224.074402,158.035385 
M256.925629,357.969666 
	C264.949890,357.924744 272.974121,357.879852 281.927307,357.968140 
	C288.081696,357.978760 294.236115,358.011993 300.390442,357.994598 
	C309.410492,357.969086 317.353973,351.432770 318.944031,342.769165 
	C320.895264,332.137695 315.964661,321.198517 306.659058,319.316620 
	C298.366974,317.639740 289.571625,318.451569 280.069061,318.035248 
	C272.044800,318.078613 264.020508,318.121979 255.067505,318.036163 
	C246.376907,318.079559 237.686295,318.122955 228.068207,318.036621 
	C224.074127,318.024597 220.080032,317.999542 216.085968,318.003082 
	C206.294800,318.011810 198.249908,324.651703 197.018341,333.725525 
	C195.443176,345.330841 200.172897,354.505554 210.296173,356.908203 
	C216.266296,358.325134 222.745483,357.597076 229.925064,357.969635 
	C238.615463,357.924652 247.305847,357.879639 256.925629,357.969666 
M169.394104,471.756409 
	C172.595978,472.115875 175.797852,472.475372 179.820358,472.967255 
	C190.194122,473.005920 198.029144,464.073822 198.013077,454.833527 
	C197.967590,428.667480 197.888596,402.500641 198.053604,376.335541 
	C198.114838,366.626678 188.899200,356.997894 178.148819,358.033936 
	C175.085556,358.650696 172.022293,359.267456 168.233566,360.004059 
	C159.972748,364.743073 157.702057,372.008911 157.859436,381.236572 
	C158.274017,405.543701 157.946411,429.862732 158.030289,454.176636 
	C158.057434,462.043335 161.347641,468.030396 169.394104,471.756409 
M392.927246,357.965912 
	C402.284546,357.921661 411.641876,357.877411 421.928253,357.964447 
	C432.906860,357.976318 443.885590,358.012543 454.863983,357.970551 
	C456.311676,357.965027 457.795959,357.700256 459.198761,357.318481 
	C471.394501,353.999390 475.013092,342.679718 472.347015,331.933502 
	C470.322296,323.772430 463.457153,318.126770 455.921448,318.047699 
	C444.282410,317.925598 432.640106,318.111542 420.069702,318.037109 
	C410.712341,318.080109 401.354980,318.123138 391.068848,318.037415 
	C386.246979,318.024841 381.422699,318.105560 376.603668,317.982147 
	C362.204987,317.613525 354.104492,330.124298 357.632324,344.066223 
	C359.695251,352.218933 366.521667,357.785706 374.049957,357.960327 
	C380.028290,358.099030 386.014771,357.889008 392.927246,357.965912 
M317.997101,292.461090 
	C317.997101,294.460632 318.069244,296.463226 317.984863,298.459198 
	C317.577393,308.099915 326.472504,317.375183 338.345367,317.226471 
	C349.313354,317.089111 358.151825,308.214417 358.072235,298.264526 
	C357.855011,271.106171 357.847168,243.943665 358.076782,216.785507 
	C358.160309,206.905350 349.422180,197.719543 337.891693,197.768204 
	C326.624878,197.815781 317.791962,206.867279 317.905823,216.991150 
	C318.185089,241.815338 317.997101,266.644806 317.997101,292.461090 
M157.994919,237.500000 
	C157.994919,257.640564 158.227188,277.784912 157.898056,297.920105 
	C157.730637,308.161926 166.707657,317.118500 177.712418,317.234650 
	C189.468689,317.358734 198.196930,308.011139 198.090622,297.974396 
	C197.808533,271.345215 198.008133,244.711060 197.964951,218.078964 
	C197.962082,216.304611 197.769470,214.458832 197.259354,212.768738 
	C194.118195,202.361252 185.633682,197.259491 173.784668,199.082642 
	C164.824066,200.461365 157.559830,208.080536 157.954025,218.524857 
	C158.179855,224.508575 157.994904,230.507797 157.994919,237.500000 
M317.997101,87.500000 
	C317.997101,104.661812 318.031128,121.823715 317.980896,138.985382 
	C317.959869,146.173187 320.860748,151.832077 327.023804,155.379288 
	C333.738556,159.244019 340.979034,159.329376 347.869598,155.950577 
	C354.829376,152.537842 358.031830,146.549637 358.016907,138.742203 
	C357.966217,112.249741 357.776184,85.754364 358.107635,59.265961 
	C358.238312,48.824512 349.249390,39.919910 338.376892,39.768532 
	C326.472565,39.602783 317.559387,49.000179 317.926025,59.010330 
	C318.261230,68.162148 317.997101,77.335907 317.997101,87.500000 
M157.994919,104.500000 
	C157.994919,115.652122 158.268372,126.812935 157.914490,137.953827 
	C157.590225,148.162537 166.694717,157.129074 177.746979,157.235291 
	C189.447983,157.347763 198.205017,148.014740 198.093170,137.940247 
	C197.801239,111.644485 197.803497,85.341225 198.091217,59.045353 
	C198.202713,48.854839 189.312225,39.872917 178.236542,39.764690 
	C166.558426,39.650574 157.662796,48.970211 157.903824,59.060173 
	C158.257507,73.865723 157.994919,88.685997 157.994919,104.500000 
M348.844604,470.599304 
	C355.544861,466.294739 358.136017,460.144928 358.071625,452.229797 
	C357.869995,427.430511 357.833313,402.626892 358.078217,377.828369 
	C358.176514,367.874573 349.398468,358.755463 337.968597,358.768463 
	C326.621613,358.781372 317.814087,367.850769 317.913361,377.881287 
	C318.165405,403.345520 317.985931,428.813995 318.023315,454.280670 
	C318.025665,455.899628 318.184082,457.583893 318.643677,459.126373 
	C322.355316,471.583374 334.527740,476.435028 348.844604,470.599304 
z"/>
<path fill="#4EADFE" opacity="1.000000" stroke="none" 
	d="
M513.000000,302.531342 
	C506.731171,318.151367 494.975464,318.643982 485.640076,315.949249 
	C477.800385,313.686279 473.012726,306.760956 473.006439,298.536865 
	C472.985687,271.417725 473.031921,244.298508 472.977173,217.179474 
	C472.961823,209.575378 476.060638,203.636765 482.728607,200.226242 
	C489.695831,196.662674 497.375000,196.319260 503.887756,200.802078 
	C507.497620,203.286819 509.582794,207.986664 512.677612,211.844025 
	C513.000000,242.020889 513.000000,272.041779 513.000000,302.531342 
z"/>
<path fill="#4EADFE" opacity="1.000000" stroke="none" 
	d="
M513.000000,143.531342 
	C506.731262,159.150833 494.976776,159.644028 485.640320,156.949265 
	C477.800751,154.686554 473.012848,147.760818 473.006439,139.537369 
	C472.985596,112.751228 473.032257,85.965012 472.977173,59.178978 
	C472.961548,51.574829 476.061066,45.636459 482.728882,42.226135 
	C489.695984,38.662750 497.375153,38.319237 503.887817,42.802135 
	C507.497650,45.286892 509.582764,49.986710 512.677612,53.844055 
	C513.000000,83.687561 513.000000,113.375122 513.000000,143.531342 
z"/>
<path fill="#4EADFE" opacity="1.000000" stroke="none" 
	d="
M513.000000,458.531342 
	C506.731415,474.150604 494.976562,474.643982 485.641602,471.949524 
	C477.801819,469.686584 473.013367,462.761566 473.006439,454.539520 
	C472.984985,429.085297 473.033691,403.630951 472.977142,378.176880 
	C472.960236,370.572449 476.062958,364.635254 482.730194,361.225647 
	C489.696869,357.662933 497.375977,357.318939 503.888214,361.802429 
	C507.497833,364.287445 509.582916,368.986847 512.677612,372.844055 
	C513.000000,401.354218 513.000000,429.708466 513.000000,458.531342 
z"/>
<path fill="#4BAFFE" opacity="1.000000" stroke="none" 
	d="
M395.998108,473.165527 
	C415.948120,473.110962 435.898499,472.969849 455.847992,473.046143 
	C463.409058,473.075043 469.917084,478.755737 472.376587,486.847137 
	C475.770813,498.013672 470.194031,508.900665 459.155396,512.677124 
	C438.312439,513.000000 417.624878,513.000000 396.468658,512.531372 
	C395.999390,499.096954 395.998749,486.131256 395.998108,473.165527 
z"/>
<path fill="#03EFFE" opacity="1.000000" stroke="none" 
	d="
M20.996002,316.833008 
	C11.257625,317.328430 4.402910,312.519653 1.336051,303.138367 
	C1.000000,273.312439 1.000000,243.624878 1.000000,213.468658 
	C4.670543,204.622360 10.156188,198.733795 20.576157,199.557159 
	C20.997692,238.998901 20.996847,277.915955 20.996002,316.833008 
z"/>
<path fill="#03EFFE" opacity="1.000000" stroke="none" 
	d="
M20.996002,472.833008 
	C11.257628,473.328430 4.402910,468.519653 1.336051,459.138367 
	C1.000000,430.312439 1.000000,401.624878 1.000000,372.468658 
	C4.670568,363.622406 10.156160,357.733765 20.576157,358.557159 
	C20.997692,396.998871 20.996847,434.915955 20.996002,472.833008 
z"/>
<path fill="#03EFFE" opacity="1.000000" stroke="none" 
	d="
M1.000000,54.468658 
	C4.510774,46.029137 9.630561,40.151917 19.586830,40.556683 
	C19.997793,79.665405 19.996948,118.249504 19.996105,156.833603 
	C11.149230,157.215881 4.290730,152.141678 1.336052,143.138382 
	C1.000000,113.645775 1.000000,84.291542 1.000000,54.468658 
z"/>
<path fill="#4CAFFE" opacity="1.000000" stroke="none" 
	d="
M458.531342,1.000000 
	C471.609894,7.303113 476.103455,16.916723 471.969513,28.747257 
	C469.435516,35.999058 462.507629,40.970520 454.745697,40.989788 
	C443.473328,41.017773 432.200775,40.976322 420.464142,40.442375 
	C419.999969,26.946844 420.000000,13.973422 420.000000,1.000000 
	C432.687561,1.000000 445.375122,1.000000 458.531342,1.000000 
z"/>
<path fill="#46B3FE" opacity="1.000000" stroke="none" 
	d="
M395.533386,473.101257 
	C395.998749,486.131256 395.999390,499.096954 396.000000,512.531372 
	C387.979095,513.000000 379.958191,513.000000 371.468628,513.000000 
	C358.390930,506.712860 353.900604,497.127045 358.020630,485.291962 
	C360.551727,478.021179 367.455200,473.047150 375.187592,473.008972 
	C381.814392,472.976257 388.441620,473.024536 395.533386,473.101257 
z"/>
<path fill="#49B1FE" opacity="1.000000" stroke="none" 
	d="
M419.531342,1.000000 
	C420.000000,13.973422 419.999969,26.946844 419.999573,40.376858 
	C408.975525,40.877625 397.951813,40.921799 386.464020,40.443718 
	C385.999939,26.947638 385.999969,13.973819 386.000000,1.000000 
	C397.020905,1.000000 408.041779,1.000000 419.531342,1.000000 
z"/>
<path fill="#30C8FE" opacity="1.000000" stroke="none" 
	d="
M211.468536,513.000000 
	C198.390182,506.734131 193.904602,497.171112 198.014679,485.315918 
	C200.549728,478.003754 207.402359,473.053131 215.146408,473.007965 
	C220.453156,472.976990 225.760345,473.024506 231.532898,473.558960 
	C231.998962,487.054016 231.999481,500.027008 232.000000,513.000000 
	C225.312363,513.000000 218.624710,513.000000 211.468536,513.000000 
z"/>
<path fill="#35C3FE" opacity="1.000000" stroke="none" 
	d="
M232.468658,513.000000 
	C231.999481,500.027008 231.998962,487.054016 231.997070,473.624146 
	C242.019394,473.124268 252.043091,473.081268 262.532471,473.559937 
	C262.998779,487.054352 262.999390,500.027191 263.000000,513.000000 
	C252.979111,513.000000 242.958206,513.000000 232.468658,513.000000 
z"/>
<path fill="#3EBBFE" opacity="1.000000" stroke="none" 
	d="
M303.531616,1.000000 
	C316.609009,7.294309 321.087524,16.851875 316.976593,28.693325 
	C314.445984,35.982620 307.571136,40.941277 299.835876,40.991772 
	C294.866455,41.024212 289.896454,40.978210 284.463074,40.443733 
	C283.999603,26.946732 283.999786,13.973366 284.000000,1.000000 
	C290.354401,1.000000 296.708801,1.000000 303.531616,1.000000 
z"/>
<path fill="#35C3FE" opacity="1.000000" stroke="none" 
	d="
M257.996094,40.834312 
	C248.306076,40.879429 238.616058,40.924541 228.462555,40.444855 
	C227.999390,26.946701 227.999695,13.973351 228.000000,1.000000 
	C237.687561,1.000000 247.375122,1.000000 257.531342,1.468657 
	C257.998688,14.902981 257.997375,27.868647 257.996094,40.834312 
z"/>
<path fill="#2FC8FE" opacity="1.000000" stroke="none" 
	d="
M227.532394,1.000000 
	C227.999695,13.973351 227.999390,26.946701 227.998169,40.377026 
	C222.371429,40.749111 216.576355,41.494709 211.158279,40.390514 
	C202.373871,38.600269 197.449310,31.235733 196.902252,22.749218 
	C196.186844,11.651014 202.280289,3.798592 210.850555,1.327627 
	C216.354935,1.000000 221.709854,1.000000 227.532394,1.000000 
z"/>
<path fill="#22D4FE" opacity="1.000000" stroke="none" 
	d="
M143.533142,1.000000 
	C158.978973,7.183595 159.669815,18.817549 156.967422,28.158243 
	C154.619904,36.272289 147.831345,40.967262 139.373306,40.997166 
	C135.889526,41.009480 132.405594,40.982086 128.460190,40.446053 
	C127.999100,26.946234 127.999550,13.973117 128.000000,1.000000 
	C133.022095,1.000000 138.044189,1.000000 143.533142,1.000000 
z"/>
<path fill="#22D4FE" opacity="1.000000" stroke="none" 
	d="
M128.996048,473.166840 
	C136.303635,473.355957 143.768005,471.480347 150.637833,476.041229 
	C158.515945,481.271515 160.001770,488.958771 158.827194,497.228363 
	C157.740479,504.879425 153.115601,510.268707 145.145294,512.669434 
	C139.977905,513.000000 134.955811,513.000000 129.466858,512.531372 
	C128.998672,499.097412 128.997360,486.132111 128.996048,473.166840 
z"/>
<path fill="#3EBBFE" opacity="1.000000" stroke="none" 
	d="
M288.998077,473.167725 
	C296.301239,473.356384 303.764832,471.479767 310.627747,476.031952 
	C318.498749,481.252777 319.999481,488.931702 318.831421,497.208282 
	C317.749451,504.875153 313.113098,510.248505 305.152679,512.674927 
	C299.977905,513.000000 294.955811,513.000000 289.466858,512.531372 
	C288.999359,499.097687 288.998718,486.132721 288.998077,473.167725 
z"/>
<path fill="#3ABFFE" opacity="1.000000" stroke="none" 
	d="
M258.460815,40.901787 
	C257.997375,27.868647 257.998688,14.902981 258.000000,1.468657 
	C266.354218,1.000000 274.708466,1.000000 283.531342,1.000000 
	C283.999786,13.973366 283.999603,26.946732 283.998810,40.376915 
	C275.640625,40.878910 267.283081,40.924084 258.460815,40.901787 
z"/>
<path fill="#3ABFFE" opacity="1.000000" stroke="none" 
	d="
M288.533508,473.102539 
	C288.998718,486.132721 288.999359,499.097687 289.000000,512.531372 
	C280.645782,513.000000 272.291534,513.000000 263.468658,513.000000 
	C262.999390,500.027191 262.998779,487.054352 262.996765,473.624817 
	C271.353180,473.124481 279.711060,473.080933 288.533508,473.102539 
z"/>
<path fill="#1BDAFE" opacity="1.000000" stroke="none" 
	d="
M128.531693,473.101044 
	C128.997360,486.132111 128.998672,499.097412 129.000000,512.531372 
	C120.645767,513.000000 112.291534,513.000000 103.468651,512.531372 
	C102.999023,499.097229 102.998047,486.131805 102.997070,473.166321 
	C111.353828,473.122650 119.710579,473.078949 128.531693,473.101044 
z"/>
<path fill="#1BDAFE" opacity="1.000000" stroke="none" 
	d="
M127.531342,1.000000 
	C127.999550,13.973117 127.999100,26.946234 127.997414,40.376556 
	C119.972588,40.880150 111.948997,40.926537 103.462189,40.446030 
	C102.999313,26.946089 102.999657,13.973044 103.000000,1.000000 
	C111.020897,1.000000 119.041801,1.000000 127.531342,1.000000 
z"/>
<path fill="#46B3FE" opacity="1.000000" stroke="none" 
	d="
M385.535339,1.000000 
	C385.999969,13.973819 385.999939,26.947638 385.999451,40.378197 
	C379.324158,40.820026 372.587402,42.129875 366.360901,37.973907 
	C358.509033,32.733051 356.993347,25.069012 358.163055,16.791880 
	C359.246613,9.124225 363.884796,3.752114 371.845215,1.323474 
	C376.356903,1.000000 380.713806,1.000000 385.535339,1.000000 
z"/>
<path fill="#16DEFE" opacity="1.000000" stroke="none" 
	d="
M102.532768,473.099854 
	C102.998047,486.131805 102.999023,499.097229 103.000000,512.531372 
	C95.645744,513.000000 88.291496,513.000000 80.468765,512.531372 
	C79.999550,499.096558 79.998817,486.130432 79.998085,473.164307 
	C87.354881,473.120636 94.711670,473.076996 102.532768,473.099854 
z"/>
<path fill="#0DE6FE" opacity="1.000000" stroke="none" 
	d="
M64.995979,40.833431 
	C59.114487,41.111042 53.423206,41.427650 48.047096,37.737041 
	C40.257954,32.389931 39.014233,24.698320 40.189606,16.578819 
	C41.281670,9.034791 45.952812,3.685463 53.859753,1.334476 
	C57.361286,1.000000 60.722576,1.000000 64.541931,1.468657 
	C64.998657,14.902687 64.997314,27.868059 64.995979,40.833431 
z"/>
<path fill="#0DE6FE" opacity="1.000000" stroke="none" 
	d="
M54.454109,513.000000 
	C38.680866,506.731934 38.304668,494.624817 41.098984,485.365021 
	C43.205143,478.385681 49.800598,471.731445 63.547882,473.556641 
	C63.999126,487.053833 63.999565,500.026917 64.000000,513.000000 
	C60.969406,513.000000 57.938812,513.000000 54.454109,513.000000 
z"/>
<path fill="#16DEFE" opacity="1.000000" stroke="none" 
	d="
M102.531731,1.000000 
	C102.999657,13.973044 102.999313,26.946089 102.998016,40.376396 
	C96.973114,40.880062 90.949181,40.926460 84.462219,40.445946 
	C83.999474,26.946024 83.999741,13.973012 84.000000,1.000000 
	C90.021156,1.000000 96.042305,1.000000 102.531731,1.000000 
z"/>
<path fill="#12E2FE" opacity="1.000000" stroke="none" 
	d="
M83.531731,1.000000 
	C83.999741,13.973012 83.999474,26.946024 83.998459,40.376354 
	C77.973122,40.880356 71.948524,40.927036 65.459961,40.903572 
	C64.997314,27.868059 64.998657,14.902687 65.000000,1.468657 
	C71.021156,1.000000 77.042305,1.000000 83.531731,1.000000 
z"/>
<path fill="#12E2FE" opacity="1.000000" stroke="none" 
	d="
M64.466858,513.000000 
	C63.999565,500.026917 63.999126,487.053833 63.997387,473.623352 
	C69.021675,473.120819 74.047256,473.075684 79.535461,473.097412 
	C79.998817,486.130432 79.999550,499.096558 80.000137,512.531372 
	C74.977905,513.000000 69.955818,513.000000 64.466858,513.000000 
z"/>
<path fill="#42B7FE" opacity="1.000000" stroke="none" 
	d="
M317.997101,291.966614 
	C317.997101,266.644806 318.185089,241.815338 317.905823,216.991150 
	C317.791962,206.867279 326.624878,197.815781 337.891693,197.768204 
	C349.422180,197.719543 358.160309,206.905350 358.076782,216.785507 
	C357.847168,243.943665 357.855011,271.106171 358.072235,298.264526 
	C358.151825,308.214417 349.313354,317.089111 338.345367,317.226471 
	C326.472504,317.375183 317.577393,308.099915 317.984863,298.459198 
	C318.069244,296.463226 317.997101,294.460632 317.997101,291.966614 
z"/>
<path fill="#29CEFE" opacity="1.000000" stroke="none" 
	d="
M157.994904,237.000015 
	C157.994904,230.507797 158.179855,224.508575 157.954025,218.524857 
	C157.559830,208.080536 164.824066,200.461365 173.784668,199.082642 
	C185.633682,197.259491 194.118195,202.361252 197.259354,212.768738 
	C197.769470,214.458832 197.962082,216.304611 197.964951,218.078964 
	C198.008133,244.711060 197.808533,271.345215 198.090622,297.974396 
	C198.196930,308.011139 189.468689,317.358734 177.712418,317.234650 
	C166.707657,317.118500 157.730637,308.161926 157.898056,297.920105 
	C158.227188,277.784912 157.994919,257.640564 157.994904,237.000015 
z"/>
<path fill="#42B7FE" opacity="1.000000" stroke="none" 
	d="
M317.997101,87.000000 
	C317.997101,77.335907 318.261230,68.162148 317.926025,59.010330 
	C317.559387,49.000179 326.472565,39.602783 338.376892,39.768532 
	C349.249390,39.919910 358.238312,48.824512 358.107635,59.265961 
	C357.776184,85.754364 357.966217,112.249741 358.016907,138.742203 
	C358.031830,146.549637 354.829376,152.537842 347.869598,155.950577 
	C340.979034,159.329376 333.738556,159.244019 327.023804,155.379288 
	C320.860748,151.832077 317.959869,146.173187 317.980896,138.985382 
	C318.031128,121.823715 317.997101,104.661812 317.997101,87.000000 
z"/>
<path fill="#29CEFE" opacity="1.000000" stroke="none" 
	d="
M157.994904,104.000000 
	C157.994919,88.685997 158.257507,73.865723 157.903824,59.060173 
	C157.662796,48.970211 166.558426,39.650574 178.236542,39.764690 
	C189.312225,39.872917 198.202713,48.854839 198.091217,59.045353 
	C197.803497,85.341225 197.801239,111.644485 198.093170,137.940247 
	C198.205017,148.014740 189.447983,157.347763 177.746979,157.235291 
	C166.694717,157.129074 157.590225,148.162537 157.914490,137.953827 
	C158.268372,126.812935 157.994919,115.652122 157.994904,104.000000 
z"/>
<path fill="#42B7FE" opacity="1.000000" stroke="none" 
	d="
M348.496887,470.778259 
	C334.527740,476.435028 322.355316,471.583374 318.643677,459.126373 
	C318.184082,457.583893 318.025665,455.899628 318.023315,454.280670 
	C317.985931,428.813995 318.165405,403.345520 317.913361,377.881287 
	C317.814087,367.850769 326.621613,358.781372 337.968597,358.768463 
	C349.398468,358.755463 358.176514,367.874573 358.078217,377.828369 
	C357.833313,402.626892 357.869995,427.430511 358.071625,452.229797 
	C358.136017,460.144928 355.544861,466.294739 348.496887,470.778259 
z"/>
<path fill="#4BAFFE" opacity="1.000000" stroke="none" 
	d="
M404.999756,158.164780 
	C421.969940,158.110489 438.940735,157.952545 455.910065,158.049286 
	C463.451141,158.092300 470.318512,163.765808 472.344604,171.931976 
	C475.014923,182.694656 471.388550,193.996765 459.189758,197.323227 
	C457.786652,197.705841 456.300171,197.967499 454.851654,197.970520 
	C438.544128,198.004410 422.236481,197.976685 405.464417,197.443634 
	C404.999908,184.002762 404.999817,171.083771 404.999756,158.164780 
z"/>
<path fill="#07EBFE" opacity="1.000000" stroke="none" 
	d="
M20.426762,156.903702 
	C19.996948,118.249504 19.997793,79.665405 19.997360,40.623856 
	C31.122362,38.135822 41.424503,48.270844 41.166386,60.163036 
	C40.610958,85.753036 40.650589,111.370247 41.153843,136.962402 
	C41.376965,148.308823 31.882376,158.283310 20.426762,156.903702 
z"/>
<path fill="#07EBFE" opacity="1.000000" stroke="none" 
	d="
M21.417377,316.903076 
	C20.996847,277.915955 20.997692,238.998901 20.997261,199.624420 
	C31.219200,197.436569 41.265656,207.400482 41.116566,218.169083 
	C40.748325,244.766815 40.797253,271.375305 41.096806,297.974792 
	C41.211254,308.137939 32.229031,317.841034 21.417377,316.903076 
z"/>
<path fill="#07EBFE" opacity="1.000000" stroke="none" 
	d="
M21.417377,472.903076 
	C20.996847,434.915955 20.997692,396.998871 20.997261,358.624390 
	C31.219198,356.436646 41.273457,366.399872 41.116192,377.167542 
	C40.742317,402.765991 40.792252,428.376007 41.096535,453.976318 
	C41.217323,464.138672 32.229073,473.840881 21.417377,472.903076 
z"/>
<path fill="#2ACCFE" opacity="1.000000" stroke="none" 
	d="
M178.999741,358.165192 
	C188.899200,356.997894 198.114838,366.626678 198.053604,376.335541 
	C197.888596,402.500641 197.967590,428.667480 198.013077,454.833527 
	C198.029144,464.073822 190.194122,473.005920 179.410187,472.443878 
	C178.999924,434.002075 178.999832,396.083618 178.999741,358.165192 
z"/>
<path fill="#4CAFFE" opacity="1.000000" stroke="none" 
	d="
M420.999207,318.166840 
	C432.640106,318.111542 444.282410,317.925598 455.921448,318.047699 
	C463.457153,318.126770 470.322296,323.772430 472.347015,331.933502 
	C475.013092,342.679718 471.394501,353.999390 459.198761,357.318481 
	C457.795959,357.700256 456.311676,357.965027 454.863983,357.970551 
	C443.885590,358.012543 432.906860,357.976318 421.464081,357.442230 
	C420.999664,344.002289 420.999420,331.084564 420.999207,318.166840 
z"/>
<path fill="#3DBCFE" opacity="1.000000" stroke="none" 
	d="
M275.997498,158.166122 
	C284.312347,158.111465 292.629608,157.908630 300.941284,158.046051 
	C308.468842,158.170471 315.291199,163.775238 317.358704,171.932083 
	C320.887817,185.855347 312.807220,198.383209 298.386444,198.018646 
	C293.565002,197.896759 288.737793,198.004517 283.913239,198.000137 
	C281.584290,197.998016 279.255371,197.979324 276.462769,197.444153 
	C275.998566,184.002167 275.998047,171.084137 275.997498,158.166122 
z"/>
<path fill="#3EBBFE" opacity="1.000000" stroke="none" 
	d="
M280.998383,318.165039 
	C289.571625,318.451569 298.366974,317.639740 306.659058,319.316620 
	C315.964661,321.198517 320.895264,332.137695 318.944031,342.769165 
	C317.353973,351.432770 309.410492,357.969086 300.390442,357.994598 
	C294.236115,358.011993 288.081696,357.978760 281.463501,357.444641 
	C280.999268,344.002441 280.998810,331.083740 280.998383,318.165039 
z"/>
<path fill="#46B3FE" opacity="1.000000" stroke="none" 
	d="
M391.997620,357.833832 
	C386.014771,357.889008 380.028290,358.099030 374.049957,357.960327 
	C366.521667,357.785706 359.695251,352.218933 357.632324,344.066223 
	C354.104492,330.124298 362.204987,317.613525 376.603668,317.982147 
	C381.422699,318.105560 386.246979,318.024841 391.533997,318.558441 
	C391.998596,331.997589 391.998108,344.915710 391.997620,357.833832 
z"/>
<path fill="#49B1FE" opacity="1.000000" stroke="none" 
	d="
M392.462433,357.899872 
	C391.998108,344.915710 391.998596,331.997589 391.998352,318.622803 
	C401.354980,318.123138 410.712341,318.080109 420.534454,318.101990 
	C420.999420,331.084564 420.999664,344.002289 420.999542,357.376587 
	C411.641876,357.877411 402.284546,357.921661 392.462433,357.899872 
z"/>
<path fill="#29CEFE" opacity="1.000000" stroke="none" 
	d="
M178.574280,358.099548 
	C178.999832,396.083618 178.999924,434.002075 178.999878,472.377686 
	C175.797852,472.475372 172.595978,472.115875 169.189224,470.959412 
	C168.975906,433.403015 168.967468,396.643616 168.959030,359.884216 
	C172.022293,359.267456 175.085556,358.650696 178.574280,358.099548 
z"/>
<path fill="#2FC8FE" opacity="1.000000" stroke="none" 
	d="
M228.995728,357.833649 
	C222.745483,357.597076 216.266296,358.325134 210.296173,356.908203 
	C200.172897,354.505554 195.443176,345.330841 197.018341,333.725525 
	C198.249908,324.651703 206.294800,318.011810 216.085968,318.003082 
	C220.080032,317.999542 224.074127,318.024597 228.533356,318.558441 
	C228.997589,331.998047 228.996658,344.915863 228.995728,357.833649 
z"/>
<path fill="#0DE6FE" opacity="1.000000" stroke="none" 
	d="
M71.994011,197.832611 
	C65.772568,197.598129 59.318127,198.335938 53.381432,196.913254 
	C43.130386,194.456635 38.220146,184.932587 40.023090,173.494720 
	C41.443352,164.484589 49.425499,158.007721 59.129711,158.003708 
	C63.108814,158.002060 67.087929,158.023697 71.532387,158.558350 
	C71.996498,171.998825 71.995255,184.915726 71.994011,197.832611 
z"/>
<path fill="#26D0FE" opacity="1.000000" stroke="none" 
	d="
M168.596298,359.944153 
	C168.967468,396.643616 168.975906,433.403015 168.971695,470.639099 
	C161.347641,468.030396 158.057434,462.043335 158.030289,454.176636 
	C157.946411,429.862732 158.274017,405.543701 157.859436,381.236572 
	C157.702057,372.008911 159.972748,364.743073 168.596298,359.944153 
z"/>
<path fill="#38C1FE" opacity="1.000000" stroke="none" 
	d="
M275.532898,158.101410 
	C275.998047,171.084137 275.998566,184.002167 275.998291,197.377029 
	C267.307556,197.878830 258.617645,197.923782 249.463715,197.444946 
	C248.999466,184.002380 248.999191,171.083618 248.998917,158.164856 
	C257.688690,158.122131 266.378479,158.079407 275.532898,158.101410 
z"/>
<path fill="#35C3FE" opacity="1.000000" stroke="none" 
	d="
M229.460388,357.901642 
	C228.996658,344.915863 228.997589,331.998047 228.997101,318.623291 
	C237.686295,318.122955 246.376907,318.079559 255.533173,318.557678 
	C255.997955,331.997711 255.997101,344.916168 255.996246,357.834656 
	C247.305847,357.879639 238.615463,357.924652 229.460388,357.901642 
z"/>
<path fill="#3ABFFE" opacity="1.000000" stroke="none" 
	d="
M256.460938,357.902161 
	C255.997101,344.916168 255.997955,331.997711 255.997528,318.622284 
	C264.020508,318.121979 272.044800,318.078613 280.533722,318.100159 
	C280.998810,331.083740 280.999268,344.002441 280.999023,357.378052 
	C272.974121,357.879852 264.949890,357.924744 256.460938,357.902161 
z"/>
<path fill="#2FC8FE" opacity="1.000000" stroke="none" 
	d="
M224.996216,197.835541 
	C217.807190,197.929123 210.576218,199.123611 204.107208,194.128204 
	C198.318558,189.658188 195.134888,179.979141 197.605560,171.865814 
	C200.158890,163.481125 206.651230,158.157272 214.589310,158.011841 
	C217.749802,157.953934 220.912628,158.023727 224.536667,158.557007 
	C224.998032,171.997604 224.997131,184.916565 224.996216,197.835541 
z"/>
<path fill="#14E0FE" opacity="1.000000" stroke="none" 
	d="
M72.458374,197.903519 
	C71.995255,184.915726 71.996498,171.998825 71.995857,158.624664 
	C79.685165,158.122696 87.376358,158.077988 95.533035,158.557190 
	C95.997589,171.998550 95.996666,184.916000 95.995743,197.833466 
	C88.304741,197.880447 80.613739,197.927429 72.458374,197.903519 
z"/>
<path fill="#35C3FE" opacity="1.000000" stroke="none" 
	d="
M225.460861,197.903290 
	C224.997131,184.916565 224.998032,171.997604 224.997559,158.621536 
	C232.687347,158.120987 240.378494,158.077515 248.534271,158.099442 
	C248.999191,171.083618 248.999466,184.002380 248.999298,197.378159 
	C241.307755,197.880463 233.616623,197.925751 225.460861,197.903290 
z"/>
<path fill="#0DE6FE" opacity="1.000000" stroke="none" 
	d="
M65.995888,357.832977 
	C59.451897,358.106323 53.029079,358.647552 47.218624,354.156708 
	C41.496044,349.733826 38.114609,339.972931 40.429459,332.086273 
	C42.895283,323.685303 49.640030,318.146729 57.626396,318.009430 
	C60.110947,317.966705 62.597195,318.022491 65.540588,318.557434 
	C65.997643,331.998779 65.996765,344.915863 65.995888,357.832977 
z"/>
<path fill="#49B1FE" opacity="1.000000" stroke="none" 
	d="
M404.535065,158.099976 
	C404.999817,171.083771 404.999908,184.002762 404.999878,197.378479 
	C397.975891,197.879044 390.952057,197.922852 383.464111,197.444336 
	C382.999756,184.002808 382.999481,171.083603 382.999237,158.164398 
	C390.022949,158.121323 397.046661,158.078247 404.535065,158.099976 
z"/>
<path fill="#46B3FE" opacity="1.000000" stroke="none" 
	d="
M382.544800,158.100266 
	C382.999481,171.083603 382.999756,184.002808 382.999634,197.378815 
	C376.691681,198.289581 370.623718,198.304886 365.113525,194.123993 
	C359.268646,189.689178 356.136627,179.999512 358.607147,171.862274 
	C361.148834,163.490601 367.659149,158.169022 375.608215,158.008255 
	C377.767853,157.964584 379.929565,158.024017 382.544800,158.100266 
z"/>
<path fill="#22D4FE" opacity="1.000000" stroke="none" 
	d="
M134.997864,318.167450 
	C148.236984,316.426666 155.511353,322.797821 157.960846,330.540131 
	C162.307648,344.279510 154.934830,360.039185 135.448135,357.443756 
	C134.998718,344.001373 134.998291,331.084412 134.997864,318.167450 
z"/>
<path fill="#1ADBFE" opacity="1.000000" stroke="none" 
	d="
M96.459915,197.903183 
	C95.996666,184.916000 95.997589,171.998550 95.997116,158.623810 
	C102.353310,158.122147 108.710899,158.077759 115.533600,158.557220 
	C115.997879,171.998505 115.997063,184.915939 115.996246,197.833389 
	C109.638855,197.879898 103.281471,197.926392 96.459915,197.903183 
z"/>
<path fill="#12E2FE" opacity="1.000000" stroke="none" 
	d="
M66.459976,357.903198 
	C65.996765,344.915863 65.997643,331.998779 65.997192,318.624329 
	C72.353424,318.122345 78.710976,318.077667 85.533554,318.557434 
	C85.997765,331.998779 85.996956,344.915710 85.996140,357.832642 
	C79.638779,357.879547 73.281425,357.926483 66.459976,357.903198 
z"/>
<path fill="#22D4FE" opacity="1.000000" stroke="none" 
	d="
M134.997864,158.167465 
	C146.647751,156.464996 154.540543,162.723236 156.975906,170.539154 
	C161.417801,184.794601 153.275681,199.753296 135.443222,197.443680 
	C134.998718,184.001373 134.998291,171.084427 134.997864,158.167465 
z"/>
<path fill="#1ED7FE" opacity="1.000000" stroke="none" 
	d="
M134.533859,158.100845 
	C134.998291,171.084427 134.998718,184.001373 134.998505,197.375427 
	C128.973389,197.878922 122.948921,197.925308 116.460342,197.902527 
	C115.997063,184.915939 115.997879,171.998505 115.997482,158.623840 
	C122.020790,158.122482 128.045319,158.078354 134.533859,158.100845 
z"/>
<path fill="#1ED7FE" opacity="1.000000" stroke="none" 
	d="
M134.534180,318.100830 
	C134.998291,331.084412 134.998718,344.001373 134.998505,357.375427 
	C129.306763,357.878723 123.615662,357.924927 117.461807,357.444763 
	C116.998573,344.001373 116.998085,331.084290 116.997597,318.167206 
	C122.688560,318.122894 128.379517,318.078552 134.534180,318.100830 
z"/>
<path fill="#1ADBFE" opacity="1.000000" stroke="none" 
	d="
M116.534973,318.100586 
	C116.998085,331.084290 116.998573,344.001373 116.998322,357.375610 
	C111.972725,357.878784 106.947868,357.924744 101.461151,357.444489 
	C100.998947,344.001282 100.998604,331.084320 100.998260,318.167358 
	C106.022957,318.122894 111.047661,318.078430 116.534973,318.100586 
z"/>
<path fill="#16DEFE" opacity="1.000000" stroke="none" 
	d="
M100.536438,318.100159 
	C100.998604,331.084320 100.998947,344.001282 100.998764,357.375427 
	C96.305481,357.879059 91.612717,357.925446 86.458046,357.902222 
	C85.996956,344.915710 85.997765,331.998779 85.997360,318.624603 
	C90.688965,318.122559 95.381790,318.077789 100.536438,318.100159 
z"/>
</svg>